<?xml version="1.0" standalone="no"?>
<!DOCTYPE svg PUBLIC "-//W3C//DTD SVG 20010904//EN"
 "http://www.w3.org/TR/2001/REC-SVG-20010904/DTD/svg10.dtd">
<svg version="1.0" xmlns="http://www.w3.org/2000/svg"
 width="2732.000000pt" height="2048.000000pt" viewBox="0 0 2732.000000 2048.000000"
 preserveAspectRatio="xMidYMid meet">
<metadata>
Created by potrace 1.16, written by Peter Selinger 2001-2019
</metadata>
<g transform="translate(0.000000,2048.000000) scale(0.100000,-0.100000)"
fill="#000000" stroke="none">
<path d="M13400 14534 c-19 -2 -87 -9 -150 -15 -967 -91 -1949 -588 -2604
-1318 -477 -532 -793 -1121 -955 -1781 -89 -360 -115 -590 -115 -995 0 -405
26 -635 115 -995 223 -906 764 -1724 1515 -2292 525 -396 1146 -665 1784 -772
257 -43 367 -51 715 -51 363 1 501 14 810 75 1347 270 2498 1236 3002 2520
253 643 341 1333 258 2022 -132 1089 -700 2078 -1590 2768 -470 364 -1079 641
-1670 760 -290 57 -431 71 -770 75 -170 2 -326 1 -345 -1z m-308 -465 c9 -5
27 -9 40 -9 23 0 184 -43 223 -60 11 -5 56 -20 100 -34 94 -29 241 -82 270
-95 11 -6 70 -28 130 -51 61 -23 125 -48 143 -56 18 -8 38 -14 44 -14 6 0 50
-16 97 -36 47 -20 109 -45 136 -56 115 -47 398 -192 505 -259 390 -245 759
-613 912 -909 22 -41 56 -106 77 -143 20 -37 55 -120 76 -185 21 -64 42 -127
46 -140 5 -12 30 -37 55 -55 80 -55 102 -76 234 -224 132 -147 245 -306 321
-448 24 -44 46 -82 49 -85 14 -11 136 -350 155 -430 41 -170 57 -260 80 -447
48 -372 33 -585 -58 -872 -30 -94 -142 -327 -176 -366 -9 -11 -28 -37 -42 -57
-13 -21 -27 -38 -31 -38 -5 0 -8 -5 -8 -11 0 -6 -9 -21 -19 -33 -11 -11 -54
-59 -95 -106 -137 -156 -290 -276 -512 -404 -75 -43 -84 -51 -109 -104 -56
-117 -101 -199 -128 -236 -13 -17 -41 -56 -61 -86 -52 -76 -204 -220 -304
-287 -183 -123 -417 -210 -658 -245 -136 -20 -456 -17 -584 5 -58 10 -136 23
-175 27 -103 13 -549 12 -687 -1 -130 -13 -277 -3 -428 27 -77 15 -120 24
-250 48 -357 68 -650 180 -741 283 -79 90 -167 261 -209 408 -23 79 -42 110
-120 192 -129 135 -211 267 -293 473 -8 19 -47 71 -87 115 -81 89 -100 124
-100 186 0 111 46 211 216 467 50 77 179 304 196 347 8 22 26 74 38 115 42
139 69 217 100 285 5 11 27 63 49 115 22 52 54 123 70 158 17 34 31 64 31 66
0 5 100 180 140 246 61 98 106 160 210 285 69 83 185 188 300 272 47 34 90 66
95 70 10 8 142 93 215 138 116 72 138 85 145 85 16 0 179 114 239 167 165 146
251 283 262 414 14 164 -80 613 -191 914 -20 55 -41 114 -46 132 -5 18 -16 45
-24 60 -8 15 -15 33 -15 39 0 10 -39 107 -75 189 -48 107 -56 132 -51 160 10
53 41 92 83 103 41 11 167 5 195 -9z"/>
<path d="M13695 11964 c-263 -31 -547 -116 -735 -218 -14 -8 -59 -32 -101 -53
-42 -22 -97 -54 -123 -71 -26 -18 -49 -32 -52 -32 -2 0 -30 -20 -62 -45 -31
-25 -61 -45 -65 -45 -19 0 -184 -145 -318 -279 -80 -80 -170 -168 -199 -196
-30 -27 -73 -76 -96 -107 -51 -70 -183 -337 -214 -433 -12 -38 -26 -79 -31
-90 -16 -38 -41 -110 -54 -160 -26 -98 -67 -211 -103 -285 -40 -81 -48 -94
-166 -256 -113 -156 -114 -165 -44 -242 84 -92 96 -164 47 -294 -45 -117 -46
-215 -5 -313 34 -80 60 -119 94 -141 30 -20 43 -9 51 43 6 36 8 38 51 43 41 5
46 8 56 40 10 31 12 32 18 12 4 -12 11 -22 16 -22 4 0 11 -19 15 -42 8 -47 44
-148 76 -211 29 -58 104 -169 133 -196 42 -40 45 -19 48 310 l3 304 20 -38
c23 -46 51 -55 105 -33 51 20 178 22 206 2 11 -8 42 -17 69 -21 29 -5 67 -20
90 -36 22 -16 55 -30 74 -31 30 -3 37 2 69 46 19 27 38 61 42 75 5 20 12 25
31 23 13 -2 31 -10 39 -17 22 -19 97 -55 115 -55 10 0 15 9 15 28 0 16 7 37
15 48 8 10 17 40 21 67 7 50 18 67 28 42 3 -8 12 -15 19 -15 8 0 20 -7 27 -15
30 -36 97 -5 102 47 2 27 7 33 28 33 28 0 50 34 50 77 0 14 -11 74 -25 132
-25 103 -25 107 -11 186 21 109 58 177 150 279 76 82 518 333 681 386 22 8 72
25 110 38 64 24 97 32 225 57 81 16 201 11 246 -9 117 -53 210 -199 258 -401
46 -191 77 -236 216 -313 98 -54 310 -18 392 66 143 147 235 311 274 487 42
194 41 240 -5 299 -43 55 -63 99 -77 171 -10 54 -10 76 2 128 8 35 20 73 27
85 33 61 66 106 109 147 58 56 65 88 75 347 l6 185 -25 21 c-35 30 -189 75
-318 93 -82 11 -145 34 -180 64 -51 45 -158 115 -210 139 -83 38 -185 54 -302
49 -122 -6 -216 11 -309 54 -70 34 -126 46 -290 63 -161 17 -276 17 -424 -1z
m-1084 -925 c19 -6 76 -31 127 -56 150 -70 247 -152 272 -228 11 -35 10 -39
-19 -78 -70 -92 -105 -154 -128 -226 -42 -128 -113 -306 -141 -351 -33 -53
-100 -113 -162 -146 -36 -18 -90 -51 -120 -73 -30 -22 -84 -60 -120 -84 -36
-25 -78 -57 -95 -72 -16 -15 -50 -36 -74 -47 -38 -18 -49 -19 -81 -8 -64 21
-95 108 -105 290 -7 144 17 343 61 490 14 47 29 100 34 119 5 18 13 38 19 44
6 6 11 17 11 25 0 8 28 71 63 141 81 164 124 210 228 241 41 12 79 24 84 25
25 8 115 4 146 -6z"/>
<path d="M14238 10230 c-43 -5 -85 -13 -95 -18 -10 -5 -35 -12 -55 -16 -20 -4
-50 -13 -65 -21 -15 -8 -35 -15 -44 -15 -8 0 -24 -7 -35 -15 -10 -8 -27 -15
-37 -15 -27 0 -321 -146 -397 -196 -36 -24 -82 -59 -103 -78 l-37 -35 6 -123
c5 -103 3 -138 -15 -215 -15 -72 -19 -112 -14 -176 9 -132 -26 -219 -127 -314
-67 -65 -83 -70 -116 -44 -34 27 -80 27 -94 1 -9 -16 -21 -20 -66 -20 -50 0
-55 -2 -66 -27 -6 -16 -11 -48 -12 -73 -1 -34 -5 -46 -18 -48 -9 -2 -19 -15
-21 -30 l-4 -27 -2 28 c0 15 -5 27 -11 27 -5 0 -10 6 -10 14 0 14 -42 49 -88
73 -36 19 -59 1 -78 -62 -14 -43 -15 -60 -6 -80 30 -66 -25 -74 -83 -11 -35
37 -47 44 -94 50 -31 4 -58 3 -64 -3 -10 -10 -4 -134 8 -183 6 -24 3 -30 -22
-40 -16 -7 -43 -26 -59 -42 -21 -21 -41 -30 -74 -32 -30 -3 -64 -17 -108 -46
-35 -23 -87 -46 -115 -53 -33 -7 -56 -19 -62 -31 -24 -45 -48 -74 -63 -74 -18
0 -68 53 -177 185 -114 140 -142 171 -151 162 -9 -8 10 -93 33 -152 57 -141
105 -225 168 -296 23 -26 47 -65 53 -88 20 -66 117 -121 215 -121 27 0 81 -5
120 -11 73 -11 280 -69 317 -89 40 -22 166 -48 248 -52 83 -5 84 -5 140 33 32
21 68 47 82 58 30 23 229 151 234 151 15 0 433 206 456 224 8 7 40 25 70 41
30 15 80 46 110 67 30 21 78 53 105 70 28 17 88 72 135 122 116 122 250 254
296 292 22 18 89 74 150 125 150 126 264 216 350 273 99 65 117 86 117 136 0
53 -41 112 -112 161 -78 54 -110 88 -141 149 -31 63 -75 187 -85 244 -3 21
-10 46 -15 55 -5 9 -16 32 -23 52 -25 63 -65 117 -110 148 -52 35 -120 44
-239 31z"/>
</g>
</svg>
